<svg width="24" height="25" viewBox="0 0 24 25" fill="none" xmlns="http://www.w3.org/2000/svg">
<circle cx="12" cy="13" r="12" fill="#2A3C59"/>
<path d="M11.2773 10.4922C11.8828 10.4922 12.3385 10.6484 12.6445 10.9609C12.9538 11.2734 13.1084 11.7747 13.1084 12.4648V16H11.9609V12.6699C11.9609 12.2598 11.8812 11.9505 11.7217 11.7422C11.5622 11.5339 11.3197 11.4297 10.9941 11.4297C10.5384 11.4297 10.2096 11.5762 10.0078 11.8691C9.80924 12.1589 9.70996 12.5804 9.70996 13.1338V16H8.5625V12.6699C8.5625 12.3965 8.52669 12.1686 8.45508 11.9863C8.38672 11.8008 8.28092 11.6624 8.1377 11.5713C7.99447 11.4769 7.8138 11.4297 7.5957 11.4297C7.27995 11.4297 7.02767 11.5013 6.83887 11.6445C6.65332 11.7878 6.51986 11.9993 6.43848 12.2793C6.3571 12.556 6.31641 12.8962 6.31641 13.2998V16H5.16895V10.5947H6.0625L6.22363 11.3223H6.28711C6.39779 11.1335 6.53451 10.9788 6.69727 10.8584C6.86328 10.7347 7.0472 10.6436 7.24902 10.585C7.45085 10.5231 7.66081 10.4922 7.87891 10.4922C8.28255 10.4922 8.62272 10.5638 8.89941 10.707C9.17611 10.847 9.38281 11.0618 9.51953 11.3516H9.60742C9.77669 11.0586 10.0127 10.8421 10.3154 10.7021C10.6182 10.5622 10.9388 10.4922 11.2773 10.4922ZM16.8633 10.4922C17.3451 10.4922 17.7585 10.5915 18.1035 10.79C18.4486 10.9886 18.7139 11.2702 18.8994 11.6348C19.085 11.9993 19.1777 12.4355 19.1777 12.9434V13.5586H15.5693C15.5824 14.0827 15.7223 14.4863 15.9893 14.7695C16.2594 15.0527 16.637 15.1943 17.1221 15.1943C17.4671 15.1943 17.7764 15.1618 18.0498 15.0967C18.3265 15.0283 18.6113 14.929 18.9043 14.7988V15.7314C18.6341 15.8584 18.359 15.9512 18.0791 16.0098C17.7992 16.0684 17.4639 16.0977 17.0732 16.0977C16.5426 16.0977 16.0755 15.9951 15.6719 15.79C15.2715 15.5817 14.9574 15.2725 14.7295 14.8623C14.5049 14.4521 14.3926 13.9427 14.3926 13.334C14.3926 12.7285 14.4951 12.2142 14.7002 11.791C14.9053 11.3678 15.1934 11.0456 15.5645 10.8242C15.9355 10.6029 16.3685 10.4922 16.8633 10.4922ZM16.8633 11.3564C16.502 11.3564 16.209 11.4736 15.9844 11.708C15.763 11.9424 15.6328 12.2858 15.5938 12.7383H18.0547C18.0514 12.4681 18.0059 12.2288 17.918 12.0205C17.8333 11.8122 17.7031 11.6494 17.5273 11.5322C17.3548 11.415 17.1335 11.3564 16.8633 11.3564Z" fill="white"/>
</svg>
