<svg width="26" height="26" viewBox="0 0 26 26" fill="none" xmlns="http://www.w3.org/2000/svg">
<circle cx="13" cy="13" r="12" fill="white" stroke="#D43C34"/>
<mask id="mask0_557_11778" style="mask-type:alpha" maskUnits="userSpaceOnUse" x="0" y="0" width="26" height="26">
<circle cx="13" cy="13" r="12" fill="white" stroke="#D43C34"/>
</mask>
<g mask="url(#mask0_557_11778)">
<mask id="mask1_557_11778" style="mask-type:alpha" maskUnits="userSpaceOnUse" x="2" y="3" width="23" height="23">
<path d="M5.44295 6.17211C10.0335 1.6362 18.9004 2.26056 22.067 6.17211C25.2335 10.0837 26.6575 18.0622 22.067 22.5981C17.4764 27.134 10.0335 27.134 5.44295 22.5981C0.852352 18.0622 0.852352 10.708 5.44295 6.17211Z" fill="#D9D9D9"/>
</mask>
<g mask="url(#mask1_557_11778)">
<circle cx="10.8048" cy="8.62874" r="0.691969" fill="#D43C34"/>
<path d="M13.596 8.55268C13.6155 8.22051 13.5507 7.88548 13.4688 7.60555L19.5889 8.45476L13.4499 9.28154C13.52 9.05211 13.5818 8.79242 13.596 8.55268Z" stroke="#D43C34"/>
<path d="M13.2444 24.1821C13.2459 24.1566 13.2473 24.1308 13.2486 24.1047C13.275 23.5888 13.2787 22.9048 13.1599 22.3569C13.048 21.8414 12.786 21.2538 12.5692 20.8191C12.4743 20.6288 12.3842 20.4602 12.3121 20.3293C12.7408 19.6969 12.9461 19.1256 12.8826 18.6067C12.8052 17.9736 12.3568 17.5971 11.9103 17.3762C11.4685 17.1577 10.9359 17.0419 10.4934 16.9608C10.3802 16.9401 10.2695 16.9211 10.1655 16.9033L10.1395 16.8989C10.0443 16.8826 9.9558 16.8675 9.87244 16.8524C9.68468 16.8184 9.55201 16.7893 9.46542 16.7606C8.528 16.4496 8.03283 16.1813 7.334 15.5183C6.7303 14.9455 6.45648 14.5626 6.12283 13.8049C5.87294 13.2374 5.73376 12.7789 5.67794 12.3237C5.62215 11.8688 5.64646 11.391 5.75389 10.7815C5.98728 9.45751 6.42085 8.40217 7.54865 7.54455C8.34299 6.9405 9.43558 6.57539 10.4346 6.51069C11.4695 6.44366 12.2152 6.70371 12.5139 7.11109C12.9156 7.65882 13.0204 8.45821 12.796 9.16008C12.5769 9.84545 12.0647 10.3837 11.2706 10.5018C10.6103 10.6 9.83568 10.9027 9.35258 11.4275C9.10255 11.6991 8.91564 12.0486 8.89687 12.4656C8.87811 12.8825 9.03051 13.2984 9.3297 13.6973C9.52577 13.9587 9.79209 14.1226 10.0623 14.2347C10.3297 14.3456 10.6312 14.4178 10.9289 14.4774C11.094 14.5105 11.2596 14.5404 11.4262 14.5705C11.8888 14.6539 12.3587 14.7387 12.845 14.8972C13.4854 15.106 14.1052 15.4314 14.6329 16.0147C15.1617 16.5991 15.6283 17.4761 15.9043 18.8367C16.1115 19.858 16.0399 20.7102 15.7399 21.4706C15.4374 22.237 14.8877 22.9487 14.0775 23.6602C13.865 23.8467 13.5513 24.0296 13.2444 24.1821Z" stroke="#D43C34"/>
<path d="M10.2933 6.4657C8.53592 6.69395 3.66466 8.03811 3.3335 14.2888" stroke="#D43C34" stroke-linecap="round"/>
<path d="M8.74103 25.6574C11.8871 19.4068 6.29865 17.7506 3.60791 19.7377" stroke="#D43C34" stroke-linecap="round"/>
<path d="M9.35417 18.8012C10.4146 19.2175 10.9349 19.7037 11.6583 20.6472C12.3894 21.6009 12.6513 22.8508 12.5877 24.0511C12.5236 25.2604 12.1339 26.3329 11.666 26.9128C11.1863 27.5072 10.1797 28.1284 8.84281 28.7265C7.5281 29.3148 5.97119 29.8481 4.47139 30.2987C2.9737 30.7486 1.54394 31.1129 0.487857 31.3648C0.122176 31.452 -0.198368 31.5257 -0.461021 31.5847C-0.397021 31.3344 -0.31891 31.0316 -0.228952 30.6881C0.0376353 29.6702 0.407882 28.2958 0.822921 26.8681C1.23836 25.439 1.6968 23.9631 2.13963 22.7397C2.36114 22.1278 2.57646 21.5855 2.77825 21.1468C2.98449 20.6984 3.16126 20.3928 3.298 20.2285C4.606 18.6566 7.07832 17.9077 9.35417 18.8012Z" stroke="#D43C34"/>
</g>
</g>
</svg>
